PathFileType	4	(X/Y/Z)	C:\Users\Basilio\Documents\Thesis Gigler\squatting_fais\c3dfiles\076\SJ_pre5\markers_experimental.trc
DataRate	CameraRate	NumFrames	NumMarkers	Units	OrigDataRate	OrigDataStartFrame	OrigNumFrames
200.000000	200.000000	4	61	mm	200.000000	161	1289
Frame#	Time	FHD			LBHD			RBHD			C7			T10			CLAV			LSHO			LUUPA			LMUPA			LDUPA			LLEP			LMEP			LRAD			LUL			LRFIN			RSHO			RUPA1			RMUPA			RDUPA			RLEP			RMEP			RRAD			RUL			RUFIN			LASI			RASI			USACR			LSACR			RSACR			LTHI1			LTHI2			LTHI3			LTHI4			LLFC			LMFC			LTIB1			LTIB2			LTIB3			LTIB4			LLMAL			LMMAL			LHEE			LMT1			LMT2			LMT5			RTHI			RTHI2			RTHI3			RTHI4			RLFC			RMFC			RTIB1			RTIB2			RTIB3			RTIB4			RLMAL			RMMAL			RHEE			RMT1			RMT2			RMT5			
		X1	Y1	Z1	X2	Y2	Z2	X3	Y3	Z3	X4	Y4	Z4	X5	Y5	Z5	X6	Y6	Z6	X7	Y7	Z7	X8	Y8	Z8	X9	Y9	Z9	X10	Y10	Z10	X11	Y11	Z11	X12	Y12	Z12	X13	Y13	Z13	X14	Y14	Z14	X15	Y15	Z15	X16	Y16	Z16	X17	Y17	Z17	X18	Y18	Z18	X19	Y19	Z19	X20	Y20	Z20	X21	Y21	Z21	X22	Y22	Z22	X23	Y23	Z23	X24	Y24	Z24	X25	Y25	Z25	X26	Y26	Z26	X27	Y27	Z27	X28	Y28	Z28	X29	Y29	Z29	X30	Y30	Z30	X31	Y31	Z31	X32	Y32	Z32	X33	Y33	Z33	X34	Y34	Z34	X35	Y35	Z35	X36	Y36	Z36	X37	Y37	Z37	X38	Y38	Z38	X39	Y39	Z39	X40	Y40	Z40	X41	Y41	Z41	X42	Y42	Z42	X43	Y43	Z43	X44	Y44	Z44	X45	Y45	Z45	X46	Y46	Z46	X47	Y47	Z47	X48	Y48	Z48	X49	Y49	Z49	X50	Y50	Z50	X51	Y51	Z51	X52	Y52	Z52	X53	Y53	Z53	X54	Y54	Z54	X55	Y55	Z55	X56	Y56	Z56	X57	Y57	Z57	X58	Y58	Z58	X59	Y59	Z59	X60	Y60	Z60	X61	Y61	Z61	

162	0.805	-58.83274078369142	1491.837890625	-897.706481933594	-206.2675781250001	1524.89453125	-1003.473083496094	-198.4822692871094	1529.867797851563	-850.979919433594	-325.7008361816407	1429.155395507813	-921.8643188476565	-406.5098571777345	1106.36279296875	-935.553405761719	-215.0426025390626	1318.009765625	-916.6018066406252	-280.7327270507813	1364.0126953125	-1086.318359375	-323.2128295898438	1250.508544921875	-1230.0712890625	-312.8405151367188	1202.087158203125	-1225.258178710938	-340.7131042480469	1203.527465820313	-1279.078125	-360.5609130859376	1163.151245117188	-1315.23583984375	-438.6659545898439	1149.611450195313	-1273.565063476563	-335.3656921386719	990.4497680664065	-1151.43701171875	-307.9300231933594	951.4365844726565	-1194.758911132813	-287.7709655761719	979.9707031250002	-1110.976318359375	-290.3755493164063	1359.695678710938	-755.0511474609376	-390.0272216796876	1250.640747070313	-627.7177734375001	-368.1812744140626	1206.611572265625	-618.2091064453126	-419.7093200683595	1199.74267578125	-587.4427490234376	-433.6827087402345	1131.626586914063	-561.9882202148439	-494.9575500488282	1127.608154296875	-627.2129516601564	-381.1391296386719	981.4033813476565	-741.5209350585939	-321.7895507812501	979.3472290039065	-747.7166748046876	-364.0760498046876	936.8544921875002	-693.5383911132814	-242.6441955566407	915.410095214844	-1033.571411132813	-255.0900878906251	912.691345214844	-823.0556640625002	-413.9942321777345	992.426208496094	-935.4021606445315	-421.8324279785157	964.4361572265627	-964.1256103515627	-425.7842102050782	962.3775024414065	-907.7734375000002	-324.2063903808594	767.7694091796876	-1118.3388671875	-289.5842590332032	689.8739013671876	-1124.004272460938	-240.8709259033204	694.4453125000001	-1111.688598632813	-315.2954406738282	635.1820678710939	-1114.784790039063	-301.5817260742188	475.4292297363282	-1106.060424804688	-268.6583557128907	458.4265747070314	-993.7771606445315	-283.5962829589844	321.1893005371094	-1048.966918945313	-310.8252563476563	276.2852478027344	-1120.652099609375	-283.9270935058594	273.5351562500001	-1083.223022460938	-308.2935485839844	196.9448547363282	-1057.01953125	-374.4700927734376	83.25479888916017	-1123.257568359375	-354.5465087890626	88.47772216796876	-1039.832763671875	-433.3715820312501	45.50080108642579	-1087.197265625	-225.2925720214844	53.02563858032228	-1054.557983398438	-218.4352416992188	53.24527740478517	-1092.684936523438	-231.8278808593751	43.04420471191407	-1144.7646484375	-349.5423889160157	670.1734008789064	-750.4266357421876	-310.7238769531251	616.4005737304689	-739.2943115234376	-275.9499511718751	619.9366455078126	-741.6723632812501	-331.9142761230469	538.0504150390626	-754.1124877929689	-324.5288391113282	477.3809204101564	-752.8030395507814	-284.2969360351563	464.6779785156251	-862.906677246094	-285.9057006835938	339.0402832031251	-761.7365722656251	-362.5677185058594	265.1837463378907	-735.0302124023439	-316.7712707519532	258.9345397949219	-743.7280883789064	-304.9696960449219	210.5796966552735	-774.0755004882815	-373.0828247070313	78.00965881347658	-734.2703857421876	-352.4742431640626	87.26950073242189	-818.585388183594	-428.9144287109376	48.74354553222658	-776.5964355468752	-222.3911743164063	53.72186279296876	-791.1690063476565	-219.9353942871094	59.43219375610353	-746.7177124023439	-245.1743621826172	34.59425735473634	-693.9929809570314	
163	0.8100000000000001	-58.77313232421876	1491.909423828125	-897.4405517578127	-206.3943023681641	1525.00244140625	-1002.8798828125	-198.3892974853516	1530.0400390625	-850.7319946289065	-325.6043395996094	1429.263305664063	-921.4152832031252	-406.4571228027345	1106.450439453125	-934.9570312500002	-214.9374542236329	1318.169067382813	-916.2011718750002	-280.7929992675782	1364.028564453125	-1085.85400390625	-323.6048583984376	1250.3076171875	-1229.422119140625	-313.0961303710938	1201.880981445313	-1224.610229492188	-341.0266418457032	1203.252563476563	-1278.40380859375	-360.8966674804688	1162.828491210938	-1314.546875	-439.0042724609376	1149.277709960938	-1272.657104492188	-335.7628784179688	990.0306396484377	-1150.88671875	-308.3533325195313	950.756530761719	-1194.224609375	-288.8650817871094	979.2464599609377	-1110.40234375	-290.2910156250001	1359.878540039063	-754.5449829101564	-389.854949951172	1250.323852539063	-627.4655761718751	-367.7386779785157	1206.47509765625	-617.8475952148439	-419.2717285156251	1199.447509765625	-587.0280761718751	-433.0338745117189	1131.306762695313	-561.6035766601564	-494.3406066894532	1127.136108398438	-626.7718505859376	-380.2085876464844	981.1788330078127	-741.1594848632814	-320.8472290039063	979.0804443359377	-747.4229125976564	-363.3349914550782	936.6756591796877	-693.3531494140626	-243.0959625244141	915.502380371094	-1033.7490234375	-254.2272644042969	912.7461547851565	-823.1447753906252	-414.0018920898439	992.5044555664065	-934.6052246093752	-421.4032287597657	964.4677734375002	-963.370544433594	-425.4586181640626	962.4228515625002	-907.0654907226565	-324.5367431640626	767.7933349609376	-1118.0341796875	-289.9382324218751	689.9407958984376	-1123.769775390625	-241.2394714355469	694.4284667968751	-1111.412353515625	-315.8228759765626	635.2145996093751	-1114.40673828125	-302.1347961425782	475.581268310547	-1105.823486328125	-269.1388549804688	458.5474548339845	-993.4280395507815	-283.9713745117188	321.2722778320313	-1048.724853515625	-311.1343078613282	276.3176879882813	-1120.449340820313	-284.2204895019532	273.5649108886719	-1083.051513671875	-308.2101745605469	197.209945678711	-1056.69384765625	-374.5144042968751	83.14120483398439	-1123.221923828125	-354.6118469238282	88.36196136474611	-1039.8154296875	-433.3673095703126	45.46456909179688	-1087.272094726563	-225.2766113281251	52.99424743652345	-1054.533203125	-218.4773406982422	53.25042724609376	-1092.755737304688	-231.8324584960938	43.08406829833985	-1144.746704101563	-349.1529235839844	670.2588500976564	-750.2210693359376	-310.3471069335938	616.4005126953126	-739.1707153320314	-275.5709533691407	619.8503417968751	-741.7064819335939	-331.6596984863282	538.0629882812501	-754.0039062500001	-324.4401245117188	477.4175720214845	-752.7662353515626	-284.2363891601563	464.6654357910157	-862.8963623046877	-285.9014282226563	339.0534667968751	-761.6917114257814	-362.5040893554688	265.2001953125001	-734.9796142578126	-316.7027587890626	259.0083618164063	-743.6915893554689	-304.8919982910157	210.574691772461	-774.027038574219	-373.0372619628907	77.98040008544923	-734.2314453125001	-352.4304809570313	87.21914672851564	-818.545593261719	-428.8839416503907	48.83932876586915	-776.5101318359377	-222.461654663086	53.62959671020509	-791.2273559570315	-219.8403472900391	59.39920043945314	-746.7686157226564	-245.0784606933594	34.62018203735352	-693.9761352539064	
164	0.8150000000000001	-58.6958694458008	1491.9736328125	-897.1925048828127	-206.4677429199219	1524.98681640625	-1002.61865234375	-198.2648468017579	1530.125732421875	-850.399841308594	-325.5218811035157	1429.383422851563	-920.914489746094	-406.3742980957032	1106.449829101563	-934.1729736328127	-214.8401489257813	1318.274169921875	-915.820739746094	-280.9657592773438	1364.045532226563	-1085.45654296875	-323.9602050781251	1250.16259765625	-1228.987915039063	-312.6895751953126	1201.525634765625	-1223.766235351563	-341.2267761230469	1203.034790039063	-1277.691284179688	-361.2092285156251	1162.549438476563	-1313.816772460938	-439.310516357422	1149.155151367188	-1271.812622070313	-336.2139282226563	989.596374511719	-1150.3076171875	-309.0658874511719	950.2515869140627	-1193.761840820313	-289.5580749511719	978.5132446289065	-1109.707641601563	-290.0656433105469	1360.0068359375	-754.1170654296876	-389.3980407714845	1250.24072265625	-626.7567138671876	-367.3766784667969	1206.29833984375	-617.4973754882814	-418.8557434082032	1199.152587890625	-586.5944824218751	-432.2801208496095	1131.057373046875	-561.2865600585939	-493.4811401367189	1126.782836914063	-626.3897094726564	-379.3784484863282	980.9807128906252	-740.8051147460939	-319.9096374511719	978.9329833984377	-747.1413574218751	-362.3807678222657	936.414489746094	-692.9935302734376	-243.4921264648438	915.6401367187502	-1033.853271484375	-253.5237579345704	912.786315917969	-823.1392211914065	-413.9228515625001	992.6116333007815	-933.8884277343752	-418.7319641113282	964.076110839844	-963.3208007812502	-424.1369628906251	962.5805664062502	-906.6688232421877	-324.9925842285157	767.9939575195314	-1117.683227539063	-290.2926635742188	690.0161743164064	-1123.574096679688	-241.5553588867188	694.4418334960939	-1111.2109375	-316.4326477050782	635.3933715820314	-1114.141235351563	-302.5942687988282	475.642059326172	-1105.583374023438	-269.6544189453126	458.5663452148439	-993.0737304687502	-284.3511657714844	321.3860778808594	-1048.418334960938	-311.4013671875001	276.3758239746094	-1120.308837890625	-284.5175781250001	273.6299438476563	-1082.897705078125	-308.7333374023438	196.9935150146485	-1056.664184570313	-374.5721435546876	83.17327117919923	-1123.189453125	-354.6568603515626	88.30442047119142	-1039.781372070313	-433.384979248047	45.42220687866212	-1087.253295898438	-225.3241882324219	52.99708175659181	-1054.520263671875	-218.5497741699219	53.25543594360353	-1092.758911132813	-231.7660369873047	43.08749008178712	-1144.745971679688	-348.7742309570313	670.2434082031251	-750.0075683593751	-310.0332336425782	616.3914794921876	-739.1337890625001	-275.2370910644532	619.7667846679689	-741.6607055664064	-331.4909362792969	538.0885620117189	-753.9236450195314	-324.3767700195313	477.4528198242189	-752.7349243164064	-284.3388671875001	464.647430419922	-862.810974121094	-285.9173278808594	339.0770263671876	-761.7093505859376	-362.5220031738282	265.2313842773438	-734.9783325195314	-316.6526489257813	259.1108398437501	-743.7257690429689	-304.8513183593751	210.6078338623047	-773.928894042969	-372.9899597167969	77.96717834472658	-734.2161865234376	-352.2983703613282	87.2228240966797	-818.4990234375002	-428.852996826172	48.81462478637697	-776.497741699219	-222.2887115478516	53.54185485839845	-791.2008056640627	-219.5001678466797	59.18441390991212	-746.8390502929689	-245.0120086669922	34.63410186767579	-694.0007934570314	
165	0.8200000000000001	-58.67192459106447	1492.039916992188	-897.025329589844	-206.3323211669922	1525.31640625	-1002.391845703125	-198.1441497802735	1530.229370117188	-850.0593872070315	-325.4807128906251	1429.41748046875	-920.5428466796877	-406.255096435547	1106.45947265625	-933.416687011719	-214.7242736816407	1318.390380859375	-915.4854736328127	-282.1551818847657	1364.395874023438	-1085.591186523438	-324.2253112792969	1249.961547851563	-1228.550659179688	-312.9611816406251	1201.302856445313	-1223.08056640625	-341.6775817871094	1202.766235351563	-1277.094970703125	-361.4458312988282	1162.240356445313	-1313.05810546875	-439.6462707519532	1148.91552734375	-1271.1884765625	-336.9632873535157	989.1196289062502	-1149.677856445313	-309.6169433593751	949.7531738281252	-1193.270874023438	-289.4366760253907	977.818054199219	-1108.870971679688	-289.8169860839844	1360.156860351563	-753.7018432617189	-389.160125732422	1249.907592773438	-626.5727539062501	-366.9449157714844	1206.070678710938	-617.0261840820314	-418.4132690429689	1198.896362304688	-586.1909790039064	-431.5694885253907	1130.80419921875	-560.7988891601564	-493.0524902343751	1126.20361328125	-625.9453125000001	-378.6019287109376	980.8228149414065	-740.5431518554689	-319.1303710937501	978.7607421875002	-746.9029541015626	-361.3742980957032	936.3304443359377	-692.6723022460939	-243.4178771972657	915.8205566406252	-1033.895385742188	-252.8704071044922	912.8618164062502	-823.2181396484377	-413.831756591797	992.5969848632815	-933.2578125000002	-420.5315856933595	964.526306152344	-962.158630371094	-424.8250427246095	962.6094360351565	-905.7012939453127	-325.4547729492188	768.0567626953127	-1117.308227539063	-290.6648559570313	690.0189208984376	-1123.28125	-241.9816589355469	694.4497680664064	-1110.986694335938	-316.8509216308594	635.4514160156251	-1113.736083984375	-303.1708374023438	475.7557067871095	-1105.240112304688	-270.1059265136719	458.6315002441407	-992.7664184570315	-285.5173645019532	321.5217285156251	-1048.586669921875	-311.6523437500001	276.3800964355469	-1120.1708984375	-284.8095703125001	273.6594848632813	-1082.757446289063	-309.0407714843751	197.0761871337891	-1056.607666015625	-374.4277038574219	83.17878723144533	-1123.19921875	-354.6947021484376	88.32338714599611	-1039.794555664063	-433.4304199218751	45.38911437988282	-1087.263305664063	-225.3058013916016	53.00059890747072	-1054.535278320313	-218.4670562744141	53.25998687744142	-1092.701171875	-231.8251342773438	43.11883163452149	-1144.746948242188	-348.4059753417969	670.3356933593751	-749.8229980468751	-309.6206970214844	616.3701782226564	-739.0416259765626	-274.9181823730469	619.7099609375001	-741.6460571289064	-331.3317565917969	538.1156616210939	-753.8669433593751	-324.3146972656251	477.4984741210939	-752.7246704101564	-284.3836975097657	464.7106323242189	-862.8897705078127	-285.9447631835938	339.0772705078126	-761.7270507812501	-362.5267028808594	265.2308959960938	-734.8856811523439	-316.6763610839844	259.0372619628907	-743.6499633789064	-304.9611511230469	210.6567840576172	-773.918395996094	-372.9489746093751	78.0162811279297	-734.1986083984376	-352.3686218261719	87.29636383056642	-818.5203857421877	-428.8809814453126	48.83750152587892	-776.521911621094	-222.2724151611329	53.4713706970215	-791.2178344726565	-219.7460937500001	59.26709365844728	-746.8291625976564	-244.9268341064454	34.57043457031251	-694.0436401367189	
